<?xml version="1.0" encoding="UTF-8" standalone="no"?>
<!-- Generator: Adobe Illustrator 16.0.0, SVG Export Plug-In . SVG Version: 6.00 Build 0)  -->

<svg
   xmlns:dc="http://purl.org/dc/elements/1.1/"
   xmlns:cc="http://creativecommons.org/ns#"
   xmlns:rdf="http://www.w3.org/1999/02/22-rdf-syntax-ns#"
   xmlns:svg="http://www.w3.org/2000/svg"
   xmlns="http://www.w3.org/2000/svg"
   xmlns:sodipodi="http://sodipodi.sourceforge.net/DTD/sodipodi-0.dtd"
   xmlns:inkscape="http://www.inkscape.org/namespaces/inkscape"
   version="1.1"
   id="Capa_1"
   x="0px"
   y="0px"
   width="285.475px"
   height="285.475px"
   viewBox="0 0 285.475 285.475"
   style="enable-background:new 0 0 285.475 285.475;"
   xml:space="preserve"
   inkscape:version="0.91 r13725"
   sodipodi:docname="cord3-vert.svg"><metadata
     id="metadata45"><rdf:RDF><cc:Work
         rdf:about=""><dc:format>image/svg+xml</dc:format><dc:type
           rdf:resource="http://purl.org/dc/dcmitype/StillImage" /><dc:title></dc:title></cc:Work></rdf:RDF></metadata><defs
     id="defs43" /><sodipodi:namedview
     pagecolor="#ffffff"
     bordercolor="#666666"
     borderopacity="1"
     objecttolerance="10"
     gridtolerance="10"
     guidetolerance="10"
     inkscape:pageopacity="0"
     inkscape:pageshadow="2"
     inkscape:window-width="1366"
     inkscape:window-height="706"
     id="namedview41"
     showgrid="false"
     inkscape:zoom="0.82669234"
     inkscape:cx="-327.8124"
     inkscape:cy="142.7375"
     inkscape:window-x="-4"
     inkscape:window-y="0"
     inkscape:window-maximized="1"
     inkscape:current-layer="Capa_1" /><g
     id="g3"
     style="stroke:#000000;stroke-opacity:1;fill:#38b44a;fill-opacity:1"><path
       d="M105.02,45.314c-0.945-9.598-4.588-18.398-10.154-25.642c-8.728,2.646-24.746,10.053-39.996,30.6   c-17.191,23.162-23.845,37.44-26.03,42.87c7.625,4.66,16.56,7.402,26.157,7.402c0,0,1.802-12.35,20.765-33.569   C94.715,45.759,105.02,45.314,105.02,45.314z"
       id="path5"
       style="stroke:#000000;stroke-opacity:1;fill:#38b44a;fill-opacity:1" /><path
       d="M45.51,41.692c15.553-18.543,31.056-27.54,39.784-31.527C76.869,3.786,66.375,0,54.991,0   C27.226,0,4.725,22.509,4.725,50.267c0,13.531,5.37,25.785,14.061,34.82C21.315,78.055,28.313,62.197,45.51,41.692z"
       id="path7"
       style="stroke:#000000;stroke-opacity:1;fill:#38b44a;fill-opacity:1" /><path
       d="M141.663,95.671l-33.855-44.144c0,0-30.25,9.582-44.695,51.11l49.208,26.183l118.725,99.317c0,0,6.001-0.57,12.422-5.406   l18.145,14.209c4.608,3.593,7.57,8.725,8.336,14.415c0.767,5.645-0.719,11.186-4.163,15.597c-3.453,4.412-8.477,7.183-14.136,7.799   c-5.737,0.601-11.407-1.03-16.011-4.63l-7.928-6.203c-2.314-1.817-5.639-1.398-7.441,0.901c-1.807,2.31-1.403,5.639,0.912,7.446   l7.922,6.203c5.852,4.577,12.899,7.011,20.164,7.006c1.17,0,2.341-0.062,3.521-0.191c8.534-0.927,16.115-5.116,21.34-11.801   c5.234-6.686,7.482-15.053,6.327-23.556c-1.145-8.45-5.515-16.031-12.309-21.354l-17.367-13.588   c2.683-3.955,5.002-9.077,6.452-15.746L141.663,95.671z M99.339,104.779c-6.172,0-11.172-5-11.172-11.171   c0-6.173,5-11.172,11.172-11.172c6.172,0,11.177,4.999,11.177,11.172C110.516,99.78,105.511,104.779,99.339,104.779z    M141.663,133.901c-2.996,0-5.414-2.428-5.414-5.414c0-2.99,2.423-5.418,5.414-5.418c2.99,0,5.414,2.423,5.414,5.418   C147.076,131.473,144.652,133.901,141.663,133.901z M154.761,145.247c-2.988,0-5.422-2.426-5.422-5.411   c0-2.996,2.434-5.419,5.422-5.419c2.987,0,5.411,2.423,5.411,5.419C160.172,142.826,157.748,145.247,154.761,145.247z"
       id="path9"
       style="stroke:#000000;stroke-opacity:1;fill:#38b44a;fill-opacity:1" /></g><g
     id="g11" /><g
     id="g13" /><g
     id="g15" /><g
     id="g17" /><g
     id="g19" /><g
     id="g21" /><g
     id="g23" /><g
     id="g25" /><g
     id="g27" /><g
     id="g29" /><g
     id="g31" /><g
     id="g33" /><g
     id="g35" /><g
     id="g37" /><g
     id="g39" /></svg>